<svg id="Layer_1" data-name="Layer 1" xmlns="http://www.w3.org/2000/svg" xmlns:xlink="http://www.w3.org/1999/xlink" viewBox="0 0 300 168.29"><defs><style>.cls-1{fill:none;}.cls-2{fill:#fff;}.cls-3{clip-path:url(#clip-path);}.cls-4{fill:#dce5f1;}</style><clipPath id="clip-path" transform="translate(-7049.5 -7115.21)"><rect class="cls-1" x="7114.37" y="7124.75" width="165.87" height="149.51"/></clipPath></defs><rect class="cls-2" width="300" height="168.29"/><g class="cls-3"><path class="cls-4" d="M7157.57,7240.19c-11.07,0-20.91-6.39-24.48-15.9l-.25-.71a20.79,20.79,0,0,1-1.19-6.76v-42.47l-16.77,50.45c-2.15,7.42,2.76,15.11,11,17.16l106.88,25.8a17.5,17.5,0,0,0,4,.46c6.88,0,13.17-4.12,14.93-10.19l6.23-17.84Z" transform="translate(-7049.5 -7115.21)"/><path class="cls-4" d="M7176.57,7174.77c7.63,0,13.83-5.58,13.83-12.45s-6.2-12.46-13.83-12.46-13.82,5.58-13.82,12.46S7169,7174.77,7176.57,7174.77Z" transform="translate(-7049.5 -7115.21)"/><path class="cls-4" d="M7263,7131.17H7159.29c-9.52,0-17.27,7-17.27,15.57v68.53c0,8.58,7.75,15.57,17.27,15.57H7263c9.52,0,17.27-7,17.27-15.57v-68.53c0-8.58-7.75-15.57-17.27-15.57Zm-103.68,12.46H7263a3.3,3.3,0,0,1,3.45,3.11V7191l-21.83-23a13,13,0,0,0-9.27-3.83,12.63,12.63,0,0,0-9.23,3.93l-25.67,27.77-8.37-7.52a13.09,13.09,0,0,0-17.14,0l-19.07,17.19v-58.8a3.3,3.3,0,0,1,3.45-3.11Z" transform="translate(-7049.5 -7115.21)"/></g></svg>